# xmcd
#
# Track frame offsets:
#	150
#	9623
#	23344
#	35454
#	46491
#	59648
#	72311
#	87379
#	95033
#	109934
#	122546
#	142799
#	152510
#	166212
#
# Disc length: 2338 seconds
#
# Revision: 0
# Processed by: cddbd v1.5.1PL2 Copyright (c) Steve Scherf et al.
# Submitted via: audiograbber 1.83.01
#
DISCID=b109200e
DTITLE=Acousticatz - Together Again For The Very First Time
DYEAR=2003
DGENRE=Country
TTITLE0=Wheel Hoss
TTITLE1=Home
TTITLE2=It Won't Work This Time
TTITLE3=Somewhere Over The Rainbow
TTITLE4=Angel Band
TTITLE5=Sweet Georgia Brown
TTITLE6=Ghost of Gettysburg
TTITLE7=Gothic Jazz
TTITLE8=Walls of Time
TTITLE9=Cheyenne
TTITLE10=Ready For The Times To Get Better
TTITLE11=Walkabout
TTITLE12=I Can See Clearly Now
TTITLE13=I'm Walkin'
EXTD=
EXTT0=
EXTT1=
EXTT2=
EXTT3=
EXTT4=
EXTT5=
EXTT6=
EXTT7=
EXTT8=
EXTT9=
EXTT10=
EXTT11=
EXTT12=
EXTT13=
PLAYORDER=
